<?xml version="1.0" standalone="no"?>
<!DOCTYPE svg PUBLIC "-//W3C//DTD SVG 20010904//EN"
 "http://www.w3.org/TR/2001/REC-SVG-20010904/DTD/svg10.dtd">
<svg version="1.0" xmlns="http://www.w3.org/2000/svg"
 width="200.000000pt" height="200.000000pt" viewBox="0 0 200.000000 200.000000"
 preserveAspectRatio="xMidYMid meet">
<metadata>
Created by potrace 1.11, written by Peter Selinger 2001-2013
</metadata>
<g transform="translate(0.000000,200.000000) scale(0.100000,-0.100000)"
fill="#000000" stroke="none">
<path d="M576 1848 c-11 -6 -46 -12 -78 -13 -44 -1 -63 -6 -78 -21 -27 -26
-34 -68 -15 -84 13 -11 13 -16 -1 -43 -15 -28 -15 -33 0 -58 10 -16 12 -29 6
-31 -16 -5 -20 -48 -8 -68 9 -14 9 -24 0 -42 -13 -26 -11 -53 5 -69 8 -8 6
-19 -5 -39 -15 -25 -15 -30 0 -52 14 -20 14 -27 2 -43 -18 -24 -18 -51 -1 -67
11 -10 11 -17 -1 -41 -13 -26 -13 -33 2 -57 9 -17 12 -30 6 -32 -16 -5 -21
-50 -8 -65 9 -11 8 -23 -1 -49 -11 -30 -10 -39 3 -59 12 -18 13 -25 3 -33 -18
-15 -19 -58 -2 -72 11 -9 12 -16 5 -25 -18 -22 -21 -62 -6 -74 12 -10 12 -16
-2 -41 -14 -24 -14 -32 -3 -53 8 -15 10 -33 6 -44 -4 -10 -9 -25 -11 -34 -4
-19 42 -69 62 -69 9 0 14 -11 14 -28 0 -36 18 -60 50 -66 14 -3 25 -5 25 -6 0
-2 34 -10 55 -13 67 -11 150 -32 150 -39 0 -5 4 -6 10 -3 5 3 36 -1 67 -9 32
-8 84 -20 115 -27 36 -7 55 -16 51 -23 -3 -6 0 -6 7 1 10 9 20 9 44 -1 17 -7
37 -11 44 -9 6 3 12 0 12 -5 0 -5 10 -8 23 -8 12 1 30 -1 39 -6 9 -4 36 -10
60 -13 24 -3 44 -10 46 -14 2 -5 12 -6 24 -3 16 4 19 2 13 -8 -5 -8 -4 -11 2
-7 6 4 42 0 81 -7 39 -7 70 -11 69 -7 -4 12 66 80 76 74 6 -3 7 -1 3 5 -3 6 4
18 16 26 12 9 17 16 10 16 -8 0 -12 22 -11 75 1 41 5 72 10 69 5 -3 9 0 9 5 0
6 -4 11 -10 11 -7 0 -10 223 -10 649 l0 650 -22 15 c-17 12 -25 13 -37 3 -12
-10 -13 -9 -7 2 7 11 0 13 -33 9 -22 -2 -41 1 -41 5 0 5 -8 3 -17 -4 -12 -10
-15 -11 -9 -1 6 9 -1 13 -26 12 -41 -1 -140 6 -193 14 -22 3 -71 8 -110 11
-38 2 -70 5 -70 6 0 0 -20 2 -45 4 -94 7 -274 24 -315 30 -16 2 -39 -1 -49 -7z
m-96 -53 c-7 -8 -10 -24 -7 -34 6 -26 -30 -36 -43 -12 -7 13 -4 24 11 40 23
25 60 31 39 6z m-12 -132 c-3 -30 -25 -42 -34 -19 -9 22 2 46 21 46 12 0 15
-8 13 -27z m2 -103 c0 -20 -5 -30 -15 -30 -21 0 -37 34 -23 48 21 21 38 13 38
-18z m0 -99 c0 -37 -27 -50 -39 -18 -10 24 3 47 25 47 9 0 14 -11 14 -29z m-2
-101 c4 -23 -15 -43 -30 -34 -10 6 -11 48 -1 58 12 12 28 0 31 -24z m2 -105
c0 -29 -16 -41 -35 -25 -14 12 -10 40 9 52 15 10 26 -1 26 -27z m0 -100 c0
-29 -16 -41 -35 -25 -11 9 -11 17 -3 35 13 29 38 22 38 -10z m0 -99 c0 -13 -7
-29 -15 -36 -12 -10 -16 -8 -24 11 -5 15 -5 29 1 37 17 20 38 14 38 -12z m-2
-106 c5 -29 -18 -44 -34 -22 -8 12 -9 22 -2 35 12 24 32 17 36 -13z m2 -105
c0 -22 -22 -40 -34 -28 -3 4 -6 16 -6 28 0 12 3 24 6 28 12 12 34 -6 34 -28z
m0 -100 c0 -30 -18 -42 -35 -24 -9 10 -10 21 -4 36 11 29 39 20 39 -12z m0
-99 c0 -30 -16 -42 -34 -26 -19 15 -8 50 15 50 13 0 19 -7 19 -24z m0 -118 c0
-40 0 -41 -20 -23 -30 27 -26 65 7 65 9 0 13 -14 13 -42z"/>
<path d="M1587 499 c7 -7 15 -10 18 -7 3 3 -2 9 -12 12 -14 6 -15 5 -6 -5z"/>
<path d="M1560 495 c0 -5 5 -17 10 -25 5 -8 10 -10 10 -5 0 6 -5 17 -10 25 -5
8 -10 11 -10 5z"/>
<path d="M1633 478 c1 -7 -5 -11 -13 -10 -8 2 -11 0 -7 -4 12 -12 38 -14 30
-1 -4 7 0 8 12 3 15 -5 16 -4 5 9 -15 18 -31 20 -27 3z"/>
<path d="M1715 450 c10 -11 20 -20 23 -20 3 0 -3 9 -13 20 -10 11 -20 20 -23
20 -3 0 3 -9 13 -20z"/>
<path d="M1596 447 c3 -10 9 -15 12 -12 3 3 0 11 -7 18 -10 9 -11 8 -5 -6z"/>
<path d="M1666 438 c3 -5 10 -6 15 -3 13 9 11 12 -6 12 -8 0 -12 -4 -9 -9z"/>
<path d="M1631 404 c0 -11 3 -14 6 -6 3 7 2 16 -1 19 -3 4 -6 -2 -5 -13z"/>
<path d="M1590 400 c0 -5 5 -10 11 -10 5 0 7 5 4 10 -3 6 -8 10 -11 10 -2 0
-4 -4 -4 -10z"/>
<path d="M1650 401 c0 -6 4 -13 10 -16 6 -3 7 1 4 9 -7 18 -14 21 -14 7z"/>
<path d="M1563 375 c-3 -9 -3 -18 -1 -21 3 -3 8 4 11 16 6 23 -1 27 -10 5z"/>
<path d="M1639 353 c-13 -16 -12 -17 4 -4 16 13 21 21 13 21 -2 0 -10 -8 -17
-17z"/>
<path d="M1676 353 c-6 -14 -5 -15 5 -6 7 7 10 15 7 18 -3 3 -9 -2 -12 -12z"/>
<path d="M1597 337 c4 -6 0 -8 -9 -5 -8 4 -15 0 -15 -7 0 -10 5 -11 18 -4 24
12 31 26 14 26 -8 0 -11 -5 -8 -10z"/>
</g>
</svg>
